<svg xmlns="http://www.w3.org/2000/svg" width="32" height="32" viewBox="0 0 32 32">
  <rect width="32" height="32" rx="5" fill="#102c50"/>
  <g fill="none" stroke="#bcefff" stroke-width="2" stroke-linecap="round">
    <path d="M16 4v24M5.6 10l20.8 12M5.6 22l20.8-12"/>
    <path d="m16 4-3 3m3-3 3 3m-3 21-3-3m3 3 3-3M5.6 10l4 .3m-4-.3 1.7-3.5m19.1 15.5-4-.3m4 .3-1.7 3.5M5.6 22l4-.3m-4 .3 1.7 3.5M26.4 10l-4 .3m4-.3-1.7-3.5"/>
  </g>
  <circle cx="16" cy="16" r="4" fill="#61cfff" stroke="#e8fbff"/>
</svg>
